<svg width="28" height="28" viewBox="0 0 28 28" fill="none" xmlns="http://www.w3.org/2000/svg">
<path fill-rule="evenodd" clip-rule="evenodd" d="M5.00852 9.67517C5.2273 9.45645 5.52399 9.33359 5.83335 9.33359C6.14271 9.33359 6.4394 9.45645 6.65818 9.67517L14 17.017L21.3418 9.67517C21.4495 9.56374 21.5782 9.47486 21.7205 9.41372C21.8629 9.35257 22.016 9.32039 22.1709 9.31904C22.3258 9.3177 22.4794 9.34722 22.6228 9.40588C22.7662 9.46454 22.8964 9.55117 23.006 9.66071C23.1155 9.77025 23.2021 9.90051 23.2608 10.0439C23.3195 10.1873 23.349 10.3409 23.3476 10.4958C23.3463 10.6507 23.3141 10.8038 23.253 10.9461C23.1918 11.0885 23.1029 11.2172 22.9915 11.3248L14.8248 19.4915C14.6061 19.7102 14.3094 19.8331 14 19.8331C13.6907 19.8331 13.394 19.7102 13.1752 19.4915L5.00852 11.3248C4.7898 11.1061 4.66693 10.8094 4.66693 10.5C4.66693 10.1906 4.7898 9.89395 5.00852 9.67517Z" fill="currentColor"/>
</svg>
